<svg xmlns="http://www.w3.org/2000/svg" viewBox="0 0 546.6 546.6"><defs><style>.cls-1{fill:#8246fa;}.cls-2{fill:#fff;}</style></defs><g id="Layer_2" data-name="Layer 2"><g id="Layer_1-2" data-name="Layer 1"><g id="Pyth_Coin" data-name="Pyth Coin"><circle id="Circle" class="cls-1" cx="273.3" cy="273.3" r="273.3"/><path class="cls-2" d="M273.3,365.7A92.45,92.45,0,1,0,196.4,222a92.92,92.92,0,0,0-15.5,51.4V512.5c5.7,2.2,11.6,4.3,17.5,6.1V327.3a92.84,92.84,0,0,0,32.8,28.2A91.79,91.79,0,0,0,273.3,365.7Zm-62.2-50.8a76,76,0,0,1-12.7-41.6,75.18,75.18,0,1,1,12.7,41.6Z"/><path class="cls-2" d="M228.6,165.5a116.71,116.71,0,1,1,44.6,224.6,8.54,8.54,0,0,0-6.2,2.6,9,9,0,0,0-2.6,6.2,8.54,8.54,0,0,0,2.6,6.2,9,9,0,0,0,6.2,2.6,134.2,134.2,0,1,0,0-268.4v-.1A134.35,134.35,0,0,0,139,273.6v218c5.7,3.5,11.5,6.8,17.5,9.9V273.3a116.31,116.31,0,0,1,19.7-64.9A117.51,117.51,0,0,1,228.6,165.5Z"/><path class="cls-2" d="M284.5,16.6A256.64,256.64,0,0,0,97.3,459.3c5.6,5.3,11.5,10.4,17.5,15.2V315a8.54,8.54,0,0,0-2.6-6.2,9,9,0,0,0-6.2-2.6,8.54,8.54,0,0,0-6.2,2.6,9,9,0,0,0-2.6,6.2V435.8a240.31,240.31,0,0,1,176.6-403c3.3,0,6.7.1,10.1.2,132.4,5.4,235.7,117.5,230.3,249.9a240.39,240.39,0,0,1-250,230.3,233.14,233.14,0,0,1-23.9-2.2V482.3a8.54,8.54,0,0,0-2.6-6.2,9,9,0,0,0-6.2-2.6,8.54,8.54,0,0,0-6.2,2.6,9,9,0,0,0-2.6,6.2v42.3c5.8,1.2,11.6,2.1,17.5,2.9,7.6,1,15.4,1.7,23.3,2,3.6.1,7.2.2,10.8.2A256.77,256.77,0,0,0,530.6,283.5C536.4,142.2,426,22.4,284.5,16.6Z"/><path class="cls-2" d="M273.3,222.5a50.6,50.6,0,1,0,50.6,50.6A50.59,50.59,0,0,0,273.3,222.5Zm0,83.8a33.1,33.1,0,1,1,33.1-33.1A33.08,33.08,0,0,1,273.3,306.3Z"/></g></g></g></svg>