<svg width="93" height="30" viewBox="0 0 93 30" fill="none" xmlns="http://www.w3.org/2000/svg">
<path d="M15.0158 12.2883C15.0158 13.865 13.7384 15.1433 12.1629 15.1433V17.9984C15.3139 17.9984 17.8688 15.4416 17.8688 12.2883C17.8688 9.13491 15.3139 6.57812 12.1629 6.57812C11.1242 6.57812 10.1487 6.85576 9.30996 7.34258C7.60414 8.32913 6.45703 10.1744 6.45703 12.2883V26.5636L9.02222 29.1308L9.30996 29.4187V12.2883C9.30996 10.7116 10.5874 9.4332 12.1629 9.4332C13.7384 9.4332 15.0158 10.7116 15.0158 12.2883Z" fill="#E6DAFE"/>
<path d="M12.1656 0.867188C10.0869 0.867188 8.1385 1.42374 6.45977 2.39609C5.38492 3.01721 4.42233 3.80878 3.60684 4.73464C1.83134 6.74779 0.753906 9.39238 0.753906 12.2875V20.8527L3.60684 23.7078V12.2875C3.60684 9.75136 4.70878 7.47221 6.45977 5.90327C7.283 5.16723 8.24946 4.58614 9.3127 4.21166C10.2043 3.894 11.1656 3.72226 12.1656 3.72226C16.8921 3.72226 20.7244 7.55743 20.7244 12.2875C20.7244 17.0175 16.8921 20.8527 12.1656 20.8527V23.7078C18.4689 23.7078 23.5774 18.5942 23.5774 12.2875C23.5774 5.98075 18.4689 0.867188 12.1656 0.867188Z" fill="#E6DAFE"/>
<path d="M30.5258 10.2235H31.7416V8.66954H33.7056C34.979 8.66954 35.5689 8.20192 35.5689 7.10121V7.02207C35.5689 5.92856 34.979 5.46094 33.7056 5.46094H30.5258V10.2235ZM31.7416 7.66235V6.4969H33.6049C34.1372 6.4969 34.3171 6.69834 34.3171 7.03646V7.1156C34.3171 7.45372 34.1372 7.66235 33.6049 7.66235H31.7416Z" fill="#E6DAFE"/>
<path d="M38.2499 8.26666V10.2379H39.4657V8.23069L41.8614 5.46094H40.3506L38.8398 7.26667L37.3434 5.46094H35.8111L38.2499 8.26666Z" fill="#E6DAFE"/>
<path d="M44.1818 6.51129V10.2235H45.3976V6.51129H47.3256V5.46094H42.2537V6.51129H44.1818Z" fill="#E6DAFE"/>
<path d="M48.3738 5.46094V10.2235H49.5896V8.39616H52.8917V10.2235H54.1075V5.46094H52.8917V7.33862H49.5896V5.46094H48.3738Z" fill="#E6DAFE"/>
<path d="M30.5258 17.1197H33.5185C35.3027 17.1197 36.0725 16.4506 36.0725 14.9254V14.537C36.0725 13.0334 35.3027 12.3571 33.5185 12.3571H30.5258V17.1197ZM33.5473 13.4075C34.4034 13.4075 34.8207 13.7096 34.8207 14.537V14.9111C34.8207 15.76 34.4034 16.0621 33.5473 16.0621H31.7416V13.4075H33.5473Z" fill="#E6DAFE"/>
<path d="M36.331 17.1197H37.5971L38.0216 16.2779H40.8129L41.2374 17.1197H42.5107L39.9856 12.3499H38.8489L36.331 17.1197ZM38.4532 15.4146L39.4173 13.5082L40.3813 15.4146H38.4532Z" fill="#E6DAFE"/>
<path d="M44.0694 13.4075V17.1197H45.2852V13.4075H47.2132V12.3571H42.1413V13.4075H44.0694Z" fill="#E6DAFE"/>
<path d="M46.8479 17.1197H48.1141L48.5386 16.2779H51.3299L51.7544 17.1197H53.0277L50.5026 12.3499H49.3659L46.8479 17.1197ZM48.9702 15.4146L49.9342 13.5082L50.8982 15.4146H48.9702Z" fill="#E6DAFE"/>
<path d="M29.8711 24.7821H31.1373L31.5617 23.9404H34.3531L34.7775 24.7821H36.0509L33.5257 20.0124H32.3891L29.8711 24.7821ZM31.9934 23.0771L32.9574 21.1706L33.9214 23.0771H31.9934Z" fill="#E6DAFE"/>
<path d="M36.3432 23.2857C36.3432 24.2138 36.9187 24.8828 39.0842 24.8828C41.1129 24.8828 41.818 24.3576 41.818 23.3145V23.2713C41.818 22.4296 41.3 22.0267 40.1633 21.9404L38.372 21.8253C37.8468 21.7749 37.6166 21.6526 37.6166 21.3361V21.3145C37.6166 20.998 37.9043 20.8325 38.9835 20.8325C40.0482 20.8325 40.4295 21.0483 40.4295 21.4656V21.5447H41.6597V21.4584C41.6597 20.5447 41.0626 19.9188 39.0194 19.9188C37.0482 19.9188 36.4151 20.4584 36.408 21.3793V21.408C36.408 22.3433 37.0914 22.703 38.1777 22.7821L39.9259 22.9044C40.4007 22.9404 40.6093 23.0699 40.6165 23.3648V23.4008C40.6165 23.8037 40.2281 23.962 39.0842 23.962C37.9763 23.962 37.5662 23.7317 37.5662 23.2857V23.2066H36.3432V23.2857Z" fill="#E6DAFE"/>
<path d="M42.4869 23.2857C42.4869 24.2138 43.0624 24.8828 45.2279 24.8828C47.2566 24.8828 47.9617 24.3576 47.9617 23.3145V23.2713C47.9617 22.4296 47.4437 22.0267 46.307 21.9404L44.5157 21.8253C43.9905 21.7749 43.7603 21.6526 43.7603 21.3361V21.3145C43.7603 20.998 44.048 20.8325 45.1272 20.8325C46.1919 20.8325 46.5732 21.0483 46.5732 21.4656V21.5447H47.8034V21.4584C47.8034 20.5447 47.2063 19.9188 45.1631 19.9188C43.1919 19.9188 42.5589 20.4584 42.5517 21.3793V21.408C42.5517 22.3433 43.2351 22.703 44.3214 22.7821L46.0696 22.9044C46.5444 22.9404 46.7531 23.0699 46.7603 23.3648V23.4008C46.7603 23.8037 46.3718 23.962 45.2279 23.962C44.12 23.962 43.7099 23.7317 43.7099 23.2857V23.2066H42.4869V23.2857Z" fill="#E6DAFE"/>
<path d="M48.7745 22.6454C48.7745 24.149 49.7313 24.8828 51.9399 24.8756C54.1486 24.8756 55.1054 24.149 55.1054 22.6454V22.1346C55.1054 20.6526 54.1486 19.926 51.9399 19.926C49.7313 19.926 48.7745 20.6526 48.7745 22.1346V22.6454ZM51.9399 20.9908C53.2924 20.9908 53.8464 21.3073 53.8464 22.1994V22.5735C53.8464 23.4871 53.2852 23.8109 51.9399 23.8109C50.5946 23.8109 50.0335 23.4871 50.0335 22.5735V22.1994C50.0335 21.3073 50.5874 20.9908 51.9399 20.9908Z" fill="#E6DAFE"/>
<path d="M59.1207 24.8684C61.3293 24.8684 62.1711 24.2138 62.1711 22.8469V22.7677H60.9193V22.8397C60.9193 23.5375 60.3797 23.8181 59.1207 23.8181C57.8761 23.8181 57.3222 23.4943 57.3222 22.5879V22.1922C57.3222 21.3001 57.8689 20.9836 59.1207 20.9836C60.3797 20.9836 60.9121 21.257 60.9193 21.9332V22.0195H62.1711V21.926C62.1567 20.5879 61.3222 19.926 59.1207 19.9332C56.8977 19.9332 56.0704 20.6598 56.0704 22.1346V22.6382C56.0704 24.1418 56.8977 24.8756 59.1207 24.8684Z" fill="#E6DAFE"/>
<path d="M64.6099 24.7821V20.0196H63.3941V24.7821H64.6099Z" fill="#E6DAFE"/>
<path d="M65.3563 24.7821H66.6225L67.047 23.9404H69.8383L70.2628 24.7821H71.5361L69.011 20.0124H67.8743L65.3563 24.7821ZM67.4786 23.0771L68.4426 21.1706L69.4067 23.0771H67.4786Z" fill="#E6DAFE"/>
<path d="M73.0947 21.0699V24.7821H74.3106V21.0699H76.2386V20.0196H71.1667V21.0699H73.0947Z" fill="#E6DAFE"/>
<path d="M78.5026 24.7821V20.0196H77.2867V24.7821H78.5026Z" fill="#E6DAFE"/>
<path d="M79.7493 22.6454C79.7493 24.149 80.7062 24.8828 82.9148 24.8756C85.1234 24.8756 86.0802 24.149 86.0802 22.6454V22.1346C86.0802 20.6526 85.1234 19.926 82.9148 19.926C80.7062 19.926 79.7493 20.6526 79.7493 22.1346V22.6454ZM82.9148 20.9908C84.2673 20.9908 84.8212 21.3073 84.8212 22.1994V22.5735C84.8212 23.4871 84.2601 23.8109 82.9148 23.8109C81.5695 23.8109 81.0083 23.4871 81.0083 22.5735V22.1994C81.0083 21.3073 81.5623 20.9908 82.9148 20.9908Z" fill="#E6DAFE"/>
<path d="M87.333 24.7821H88.4769V21.5591L91.5632 24.7821H92.9804V20.0124H91.8438V23.2282L88.6999 20.0124H87.333V24.7821Z" fill="#E6DAFE"/>
</svg>
