<svg width="26" height="33" viewBox="0 0 26 33" fill="none" xmlns="http://www.w3.org/2000/svg">
<path d="M16.3858 12.9547C16.3858 14.7218 14.954 16.1547 13.1882 16.1547V19.3547C16.7198 19.3547 19.5834 16.489 19.5834 12.9547C19.5834 9.42036 16.7198 6.55469 13.1882 6.55469C12.024 6.55469 10.9306 6.86586 9.99057 7.41149C8.07866 8.51724 6.79297 10.5854 6.79297 12.9547V28.9547L9.66806 31.8319L9.99057 32.1547V12.9547C9.99057 11.1875 11.4223 9.75468 13.1882 9.75468C14.954 9.75468 16.3858 11.1875 16.3858 12.9547Z" fill="#E6DAFE"/>
<path d="M13.1888 0.148438C10.859 0.148438 8.67517 0.772227 6.79363 1.86205C5.58893 2.5582 4.51005 3.4454 3.59603 4.48312C1.60603 6.73948 0.398438 9.70356 0.398438 12.9484V22.5484L3.59603 25.7484V12.9484C3.59603 10.1059 4.83111 7.55141 6.79363 5.79294C7.71632 4.96797 8.79954 4.31668 9.99123 3.89696C10.9906 3.54093 12.068 3.34843 13.1888 3.34843C18.4863 3.34843 22.7816 7.64694 22.7816 12.9484C22.7816 18.2499 18.4863 22.5484 13.1888 22.5484V25.7484C20.2536 25.7484 25.9792 20.0171 25.9792 12.9484C25.9792 5.87978 20.2536 0.148438 13.1888 0.148438Z" fill="#E6DAFE"/>
</svg>
