<svg width="91" height="28" viewBox="0 0 91 28" fill="none" xmlns="http://www.w3.org/2000/svg">
<path d="M14.725 11.2141C14.725 12.7552 13.4764 14.0047 11.9364 14.0047V16.7953C15.0163 16.7953 17.5135 14.2963 17.5135 11.2141C17.5135 8.13189 15.0163 5.63281 11.9364 5.63281C10.9212 5.63281 9.9677 5.90418 9.14791 6.38001C7.48059 7.3443 6.35938 9.14792 6.35938 11.2141V25.1672L8.86666 27.6764L9.14791 27.9579V11.2141C9.14791 9.67298 10.3965 8.42344 11.9364 8.42344C13.4764 8.42344 14.725 9.67298 14.725 11.2141Z" fill="#E6DAFE"/>
<path d="M11.9393 0.046875C9.90749 0.046875 8.00307 0.590865 6.36223 1.54127C5.31164 2.14837 4.37078 2.92207 3.57369 3.82704C1.83827 5.79474 0.785156 8.37964 0.785156 11.2094V19.5813L3.57369 22.3719V11.2094C3.57369 8.73052 4.65077 6.50281 6.36223 4.96929C7.16688 4.24986 8.11153 3.68189 9.15077 3.31586C10.0223 3.00537 10.9619 2.83751 11.9393 2.83751C16.5591 2.83751 20.3049 6.58612 20.3049 11.2094C20.3049 15.8327 16.5591 19.5813 11.9393 19.5813V22.3719C18.1003 22.3719 23.0935 17.3738 23.0935 11.2094C23.0935 5.04502 18.1003 0.046875 11.9393 0.046875Z" fill="#E6DAFE"/>
<path d="M31.8493 7.22308V6.1772H34.3307C34.7101 6.1772 35.0063 6.06954 35.2187 5.85421C35.431 5.63888 35.5372 5.35504 35.5372 5.00408C35.5372 4.65312 35.431 4.36369 35.2187 4.15395C35.0063 3.94422 34.7101 3.83935 34.3307 3.83935H31.0592V8.94221H29.9883V2.75781H34.3307C34.6877 2.75781 35.0063 2.81025 35.2871 2.91511C35.5673 3.01998 35.8041 3.1675 35.9969 3.35766C36.1897 3.54782 36.3371 3.77853 36.4391 4.05048C36.5411 4.32244 36.5921 4.62865 36.5921 4.96912C36.5921 5.3096 36.5411 5.60812 36.4391 5.88357C36.3371 6.15833 36.1897 6.39533 35.9969 6.59388C35.8041 6.79243 35.568 6.94693 35.2871 7.05739C35.007 7.16785 34.6877 7.22308 34.3307 7.22308H31.8493Z" fill="#E6DAFE"/>
<path d="M40.108 8.94082V6.59318L36.8281 2.75781H38.2812L40.6865 5.60672L43.0994 2.75781H44.4763L41.1874 6.59318V8.94082H40.108Z" fill="#E6DAFE"/>
<path d="M48.1937 8.94082V3.83795H45.3516V2.75781H52.1192V3.83795H49.2731V8.94082H48.1937Z" fill="#E6DAFE"/>
<path d="M58.8741 2.75781H59.9492V8.94082H58.8741V2.75781Z" fill="#E6DAFE"/>
<path d="M54.2345 8.94082V6.26459H58.2344V5.3075H54.2345V2.75781H53.1594V8.94082H54.2345Z" fill="#E6DAFE"/>
<path d="M29.8936 16.777H32.8713C34.6464 16.777 35.4123 16.1113 35.4123 14.5938V14.2073C35.4123 12.7113 34.6464 12.0384 32.8713 12.0384H29.8936V16.777ZM32.8999 13.0835C33.7517 13.0835 34.1669 13.3841 34.1669 14.2073V14.5795C34.1669 15.4241 33.7517 15.7248 32.8999 15.7248H31.1033V13.0835H32.8999Z" fill="#E6DAFE"/>
<path d="M35.5264 16.777H36.7862L37.2085 15.9395H39.9858L40.4081 16.777H41.675L39.1626 12.0312H38.0316L35.5264 16.777ZM37.638 15.0805L38.5971 13.1837L39.5563 15.0805H37.638Z" fill="#E6DAFE"/>
<path d="M43.0826 13.0835V16.777H44.2923V13.0835H46.2107V12.0384H41.1643V13.0835H43.0826Z" fill="#E6DAFE"/>
<path d="M45.7041 16.777H46.9639L47.3862 15.9395H50.1635L50.5858 16.777H51.8527L49.3403 12.0312H48.2093L45.7041 16.777ZM47.8157 15.0805L48.7748 13.1837L49.734 15.0805H47.8157Z" fill="#E6DAFE"/>
<path d="M29.2422 24.5314H30.502L30.9243 23.6939H33.7016L34.1239 24.5314H35.3909L32.8784 19.7857H31.7475L29.2422 24.5314ZM31.3538 22.835L32.3129 20.9381L33.2721 22.835H31.3538Z" fill="#E6DAFE"/>
<path d="M35.5386 23.0426C35.5386 23.9659 36.1112 24.6316 38.2657 24.6316C40.2843 24.6316 40.9857 24.1091 40.9857 23.0712V23.0282C40.9857 22.1908 40.4704 21.7899 39.3394 21.704L37.5571 21.5895C37.0346 21.5394 36.8055 21.4177 36.8055 21.1028V21.0813C36.8055 20.7663 37.0918 20.6017 38.1655 20.6017C39.2249 20.6017 39.6043 20.8164 39.6043 21.2316V21.3103H40.8283V21.2244C40.8283 20.3154 40.2342 19.6926 38.2013 19.6926C36.24 19.6926 35.6101 20.2295 35.603 21.1457V21.1743C35.603 22.1049 36.283 22.4628 37.3638 22.5415L39.1032 22.6632C39.5756 22.699 39.7832 22.8278 39.7904 23.1213V23.1571C39.7904 23.5579 39.4038 23.7154 38.2657 23.7154C37.1634 23.7154 36.7554 23.4863 36.7554 23.0426V22.9638H35.5386V23.0426Z" fill="#E6DAFE"/>
<path d="M41.5082 23.0426C41.5082 23.9659 42.0808 24.6316 44.2353 24.6316C46.2539 24.6316 46.9554 24.1091 46.9554 23.0712V23.0282C46.9554 22.1908 46.44 21.7899 45.309 21.704L43.5267 21.5895C43.0042 21.5394 42.7751 21.4177 42.7751 21.1028V21.0813C42.7751 20.7663 43.0614 20.6017 44.1351 20.6017C45.1945 20.6017 45.5739 20.8164 45.5739 21.2316V21.3103H46.7979V21.2244C46.7979 20.3154 46.2038 19.6926 44.1709 19.6926C42.2096 19.6926 41.5797 20.2295 41.5726 21.1457V21.1743C41.5726 22.1049 42.2526 22.4628 43.3334 22.5415L45.0728 22.6632C45.5452 22.699 45.7528 22.8278 45.76 23.1213V23.1571C45.76 23.5579 45.3735 23.7154 44.2353 23.7154C43.133 23.7154 42.725 23.4863 42.725 23.0426V22.9638H41.5082V23.0426Z" fill="#E6DAFE"/>
<path d="M47.6209 22.4055C47.6209 23.9015 48.5729 24.6316 50.7704 24.6245C52.9679 24.6245 53.9199 23.9015 53.9199 22.4055V21.8973C53.9199 20.4227 52.9679 19.6998 50.7704 19.6998C48.5729 19.6998 47.6209 20.4227 47.6209 21.8973V22.4055ZM50.7704 20.7592C52.1161 20.7592 52.6673 21.0741 52.6673 21.9617V22.3339C52.6673 23.243 52.109 23.5651 50.7704 23.5651C49.4319 23.5651 48.8736 23.243 48.8736 22.3339V21.9617C48.8736 21.0741 49.4247 20.7592 50.7704 20.7592Z" fill="#E6DAFE"/>
<path d="M57.7719 24.6173C59.9694 24.6173 60.8069 23.9659 60.8069 22.6059V22.5272H59.5614V22.5988C59.5614 23.2931 59.0246 23.5722 57.7719 23.5722C56.5336 23.5722 55.9824 23.2501 55.9824 22.3482V21.9545C55.9824 21.067 56.5264 20.752 57.7719 20.752C59.0246 20.752 59.5542 21.024 59.5614 21.6969V21.7828H60.8069V21.6897C60.7926 20.3583 59.9622 19.6998 57.7719 19.707C55.5601 19.707 54.7369 20.4299 54.7369 21.8973V22.3983C54.7369 23.8944 55.5601 24.6245 57.7719 24.6173Z" fill="#E6DAFE"/>
<path d="M63.0903 24.5314V19.7928H61.8806V24.5314H63.0903Z" fill="#E6DAFE"/>
<path d="M63.6898 24.5314H64.9496L65.3719 23.6939H68.1492L68.5715 24.5314H69.8385L67.326 19.7857H66.1951L63.6898 24.5314ZM65.8014 22.835L66.7606 20.9381L67.7197 22.835H65.8014Z" fill="#E6DAFE"/>
<path d="M71.2461 20.8379V24.5314H72.4558V20.8379H74.3741V19.7928H69.3277V20.8379H71.2461Z" fill="#E6DAFE"/>
<path d="M76.4835 24.5314V19.7928H75.2738V24.5314H76.4835Z" fill="#E6DAFE"/>
<path d="M77.5809 22.4055C77.5809 23.9015 78.5329 24.6316 80.7304 24.6245C82.9278 24.6245 83.8798 23.9015 83.8798 22.4055V21.8973C83.8798 20.4227 82.9278 19.6998 80.7304 19.6998C78.5329 19.6998 77.5809 20.4227 77.5809 21.8973V22.4055ZM80.7304 20.7592C82.076 20.7592 82.6272 21.0741 82.6272 21.9617V22.3339C82.6272 23.243 82.0689 23.5651 80.7304 23.5651C79.3918 23.5651 78.8335 23.243 78.8335 22.3339V21.9617C78.8335 21.0741 79.3847 20.7592 80.7304 20.7592Z" fill="#E6DAFE"/>
<path d="M84.9832 24.5314H86.1213V21.3246L89.1921 24.5314H90.6022V19.7857H89.4712V22.9853L86.3432 19.7857H84.9832V24.5314Z" fill="#E6DAFE"/>
</svg>
