<svg width="32" height="48" viewBox="0 0 32 48" fill="none" xmlns="http://www.w3.org/2000/svg">
<path d="M17.6428 18.5683C18.6468 18.5687 19.6282 18.2703 20.4629 17.7108C21.2976 17.1514 21.9479 16.356 22.3315 15.4256C22.7151 14.4952 22.8147 13.4715 22.6176 12.4842C22.4206 11.497 21.9358 10.5906 21.2247 9.87987C20.5136 9.16917 19.6081 8.68614 18.623 8.49197C17.6379 8.29779 16.6175 8.40121 15.6911 8.78913C14.7647 9.17705 13.9739 9.832 13.419 10.671C12.864 11.5101 12.5699 12.4954 12.5738 13.5022C12.5802 14.8469 13.1168 16.1344 14.0666 17.0836C15.0163 18.0328 16.302 18.5666 17.6428 18.5683ZM17.6428 10.1608C18.2977 10.1604 18.938 10.3545 19.4829 10.7187C20.0278 11.0829 20.4529 11.6008 20.7046 12.2071C20.9563 12.8133 21.0233 13.4808 20.8971 14.1252C20.7708 14.7696 20.4571 15.3621 19.9955 15.8279C19.5338 16.2936 18.9449 16.6118 18.3031 16.7422C17.6613 16.8726 16.9954 16.8094 16.3894 16.5606C15.7834 16.3118 15.2644 15.8885 14.898 15.3442C14.5317 14.7999 14.3343 14.1589 14.3308 13.5022C14.3299 13.0653 14.4149 12.6324 14.5809 12.2284C14.747 11.8244 14.9907 11.4572 15.2983 11.1477C15.6059 10.8382 15.9712 10.5925 16.3735 10.4247C16.7758 10.2569 17.2071 10.1702 17.6428 10.1696V10.1608Z" fill="white"/>
<path d="M17.6429 22.7797C19.4752 22.7797 21.2663 22.2347 22.7896 21.2136C24.313 20.1924 25.5001 18.7411 26.2007 17.0432C26.9014 15.3453 27.0842 13.4771 26.7259 11.675C26.3677 9.87293 25.4845 8.21789 24.1881 6.91931C22.8917 5.62072 21.2404 4.73693 19.4431 4.37977C17.6457 4.02262 15.7831 4.20815 14.091 4.91286C12.3988 5.61758 10.953 6.80982 9.93666 8.33876C8.92029 9.86771 8.37894 11.6646 8.38111 13.5022V38.7225C8.38111 38.9561 8.47367 39.1802 8.63842 39.3455C8.80318 39.5107 9.02663 39.6035 9.25963 39.6035C9.49263 39.6035 9.71608 39.5107 9.88084 39.3455C10.0456 39.1802 10.1382 38.9561 10.1382 38.7225V18.9251C10.9954 20.1176 12.1228 21.0889 13.4275 21.759C14.7323 22.4292 16.177 22.779 17.6429 22.7797ZM17.6429 5.96696C19.1268 5.96696 20.5775 6.40815 21.8114 7.23478C23.0454 8.06141 24.0073 9.23636 24.5756 10.6111C25.1438 11.9859 25.293 13.4987 25.0041 14.9585C24.7152 16.4182 24.0014 17.7593 22.9527 18.8123C21.904 19.8652 20.5676 20.5827 19.1124 20.8741C17.6572 21.1655 16.1485 21.0177 14.777 20.4494C13.4056 19.8811 12.2329 18.9178 11.4072 17.6813C10.5815 16.4447 10.1399 14.9904 10.1382 13.5022C10.1376 11.5051 10.9278 9.58946 12.3351 8.17646C13.7424 6.76345 15.6515 5.96871 17.6429 5.96696Z" fill="white"/>
<path d="M17.643 0C14.0746 0.00408513 10.6536 1.42829 8.13139 3.95988C5.60915 6.49146 4.19184 9.92346 4.19067 13.5022V47.1189C4.19067 47.3526 4.28323 47.5767 4.44799 47.7419C4.61274 47.9072 4.8362 48 5.06919 48C5.30219 48 5.52565 47.9072 5.6904 47.7419C5.85516 47.5767 5.94771 47.3526 5.94771 47.1189V13.5022C5.94771 11.1824 6.63363 8.91471 7.91873 6.98588C9.20382 5.05704 11.0304 3.55369 13.1674 2.66595C15.3045 1.7782 17.656 1.54593 19.9247 1.9985C22.1933 2.45107 24.2772 3.56815 25.9128 5.20849C27.5485 6.84883 28.6623 8.93876 29.1136 11.214C29.5649 13.4892 29.3333 15.8475 28.4481 17.9907C27.5629 20.1339 26.0639 21.9658 24.1406 23.2546C22.2173 24.5434 19.9561 25.2313 17.643 25.2313C17.41 25.2313 17.1866 25.3241 17.0218 25.4893C16.8571 25.6546 16.7645 25.8787 16.7645 26.1123C16.7645 26.346 16.8571 26.5701 17.0218 26.7353C17.1866 26.9006 17.41 26.9934 17.643 26.9934C21.2108 26.9934 24.6325 25.572 27.1553 23.0419C29.6781 20.5118 31.0954 17.0803 31.0954 13.5022C31.0954 9.92411 29.6781 6.49257 27.1553 3.96249C24.6325 1.4324 21.2108 0.0110105 17.643 0.0110105V0Z" fill="white"/>
<path d="M0.87852 16.8062C0.645522 16.8062 0.422073 16.899 0.257319 17.0642C0.0925642 17.2294 0 17.4535 0 17.6872V34.5C0 34.7337 0.0925642 34.9578 0.257319 35.123C0.422073 35.2882 0.645522 35.381 0.87852 35.381C1.11152 35.381 1.33497 35.2882 1.49973 35.123C1.66448 34.9578 1.75704 34.7337 1.75704 34.5V17.6872C1.75704 17.4535 1.66448 17.2294 1.49973 17.0642C1.33497 16.899 1.11152 16.8062 0.87852 16.8062Z" fill="white"/>
<path d="M13.4523 33.6279C13.2193 33.6279 12.9958 33.7208 12.831 33.886C12.6663 34.0512 12.5737 34.2753 12.5737 34.509V42.9165C12.5737 43.1502 12.6663 43.3743 12.831 43.5395C12.9958 43.7047 13.2193 43.7975 13.4523 43.7975C13.6852 43.7975 13.9087 43.7047 14.0735 43.5395C14.2382 43.3743 14.3308 43.1502 14.3308 42.9165V34.509C14.3308 34.2753 14.2382 34.0512 14.0735 33.886C13.9087 33.7208 13.6852 33.6279 13.4523 33.6279Z" fill="white"/>
</svg>
