<?xml version="1.0" encoding="UTF-8"?><svg xmlns="http://www.w3.org/2000/svg" viewBox="0 0 546.6 546.6"><defs><style>.f{fill:#fff;}.g{fill:#8246fa;}</style></defs><g id="a"/><g id="b"><g id="c"><g id="d"><circle id="e" class="g" cx="273.3" cy="273.3" r="273.3"/><g><path class="f" d="M273.3,365.7c18.3,0,36.1-5.4,51.3-15.6,15.2-10.2,27-24.6,34-41.5s8.8-35.5,5.2-53.4-12.4-34.4-25.3-47.3-29.4-21.7-47.3-25.3c-17.9-3.6-36.5-1.7-53.4,5.3s-31.3,18.9-41.4,34.1c-10.1,15.2-15.5,33.1-15.5,51.4v239.1c5.7,2.2,11.6,4.3,17.5,6.1v-191.3c8.6,11.9,19.8,21.5,32.8,28.2s27.4,10.2,42.1,10.2Zm-62.2-50.8c-8.2-12.3-12.6-26.8-12.7-41.6,0-19.9,7.9-38.9,21.9-53s33.1-22,52.9-22c14.8,0,29.3,4.4,41.6,12.6,12.3,8.2,21.9,19.9,27.6,33.6,5.7,13.7,7.2,28.7,4.3,43.3-2.9,14.5-10,27.9-20.5,38.4s-23.8,17.6-38.3,20.5-29.6,1.4-43.2-4.2c-13.7-5.7-25.4-15.3-33.6-27.6Z"/><path class="f" d="M228.6,165.5c21.3-8.8,44.8-11.1,67.4-6.6,22.6,4.5,43.4,15.6,59.7,31.9,16.3,16.3,27.4,37.1,31.9,59.8,4.5,22.6,2.2,46.1-6.6,67.4-8.8,21.3-23.8,39.6-43,52.4-19.2,12.8-41.7,19.7-64.8,19.7-2.3,0-4.6,.9-6.2,2.6-1.6,1.6-2.6,3.9-2.6,6.2s.9,4.6,2.6,6.2c1.6,1.6,3.9,2.6,6.2,2.6,35.6,0,69.7-14.1,94.9-39.3s39.3-59.3,39.3-94.9-14.1-69.8-39.3-94.9c-25.2-25.2-59.3-39.3-94.9-39.3v-.1c-35.6,0-69.7,14.2-94.9,39.4s-39.3,59.4-39.3,95v218c5.7,3.5,11.5,6.8,17.5,9.9v-228.2c0-23.1,6.8-45.7,19.7-64.9,12.9-19.1,31.1-34.1,52.4-42.9Z"/><path class="f" d="M284.5,16.6c-68.5-2.8-134.1,21.2-184.5,67.7S20.2,194.1,17.4,262.6c-3.1,76.9,28,147.4,79.9,196.7,5.6,5.3,11.5,10.4,17.5,15.2v-159.5c0-2.3-.9-4.6-2.6-6.2-1.6-1.6-3.9-2.6-6.2-2.6s-4.6,.9-6.2,2.6c-1.6,1.6-2.6,3.9-2.6,6.2v120.8c-41.6-45.2-66-106.3-63.3-172.5,2.6-64.1,30.1-123.4,77.3-166.9,44.7-41.2,102.1-63.6,162.6-63.6,3.3,0,6.7,.1,10.1,.2,132.4,5.4,235.7,117.5,230.3,249.9-2.6,64.1-30.1,123.4-77.3,166.9s-108.5,66-172.7,63.4c-8.1-.3-16.1-1.1-23.9-2.2v-28.7c0-2.3-.9-4.6-2.6-6.2-1.6-1.6-3.9-2.6-6.2-2.6s-4.6,.9-6.2,2.6c-1.6,1.6-2.6,3.9-2.6,6.2v42.3c5.8,1.2,11.6,2.1,17.5,2.9,7.6,1,15.4,1.7,23.3,2,3.6,.1,7.2,.2,10.8,.2,64.6,0,125.9-23.9,173.7-67.9,50.4-46.5,79.8-109.8,82.6-178.3,5.8-141.3-104.6-261.1-246.1-266.9Z"/><path class="f" d="M273.3,222.5c-28,0-50.6,22.7-50.6,50.6s22.7,50.6,50.6,50.6,50.6-22.7,50.6-50.6-22.7-50.6-50.6-50.6Zm0,83.8c-18.3,0-33.1-14.8-33.1-33.1s14.8-33.1,33.1-33.1,33.1,14.8,33.1,33.1c-.1,18.2-14.9,33.1-33.1,33.1Z"/></g></g></g></g></svg>